<svg width="25" height="24" viewBox="0 0 25 24" fill="none" xmlns="http://www.w3.org/2000/svg">
<path d="M24.6857 1.13795C24.5764 1.04355 24.4434 0.980784 24.3011 0.956428C24.1587 0.932072 24.0124 0.947049 23.878 0.999742L0.920395 9.98408C0.641159 10.0933 0.404907 10.2902 0.247122 10.5452C0.089336 10.8002 0.0185332 11.0995 0.0453467 11.3981C0.0721601 11.6968 0.195142 11.9787 0.395823 12.2015C0.596505 12.4243 0.864052 12.576 1.15829 12.6337L7.28907 13.8379V20.6563C7.28919 20.9724 7.38378 21.2813 7.56068 21.5432C7.73758 21.8052 7.98873 22.0083 8.2819 22.1265C8.57506 22.2447 8.89686 22.2726 9.206 22.2067C9.51514 22.1407 9.79751 21.9839 10.0169 21.7563L13.0347 18.6263L17.7449 22.7554C18.0325 23.0099 18.4031 23.1505 18.7871 23.1508C18.9548 23.1504 19.1214 23.124 19.281 23.0726C19.5427 22.9898 19.7781 22.8398 19.9637 22.6377C20.1494 22.4356 20.2788 22.1883 20.3391 21.9205L24.9405 1.91619C24.9729 1.77555 24.9663 1.62876 24.9213 1.49162C24.8764 1.35448 24.7949 1.2322 24.6857 1.13795ZM1.40411 11.2959C1.39977 11.2842 1.39977 11.2713 1.40411 11.2596C1.40922 11.2557 1.41497 11.2526 1.4211 11.2506L19.5132 4.16822L7.81129 12.551L1.4211 11.3004L1.40411 11.2959ZM9.03813 20.8115C9.00691 20.8439 8.96674 20.8663 8.92276 20.8758C8.87878 20.8852 8.83297 20.8814 8.79117 20.8648C8.74937 20.8481 8.71347 20.8194 8.68805 20.7823C8.66263 20.7451 8.64884 20.7013 8.64844 20.6563V14.7781L12.0118 17.7235L9.03813 20.8115ZM19.0148 21.6135C19.0065 21.6518 18.988 21.6872 18.9613 21.7159C18.9345 21.7446 18.9006 21.7656 18.863 21.7767C18.8247 21.7901 18.7834 21.793 18.7435 21.7851C18.7037 21.7771 18.6667 21.7585 18.6364 21.7313L9.06078 13.3315L23.2617 3.15435L19.0148 21.6135Z" fill="white"/>
</svg>
